<?xml version="1.0" standalone="no"?><!DOCTYPE svg PUBLIC "-//W3C//DTD SVG 1.1//EN" "http://www.w3.org/Graphics/SVG/1.1/DTD/svg11.dtd"><svg t="1550721477599" class="icon" style="" viewBox="0 0 2224 1024" version="1.1" xmlns="http://www.w3.org/2000/svg" p-id="2562" xmlns:xlink="http://www.w3.org/1999/xlink" width="434.375" height="200"><defs><style type="text/css"></style></defs><path d="M679.098182 872.662109h-91.769018v142.848H410.847418V872.662109H0V698.693818L344.492218 8.489891h200.480582L200.480582 698.693818h210.366836V510.585018h176.481746v188.1088h91.769018v173.968291z m833.601163-148.507927c0 192.353745-141.190982 299.845818-304.965818 299.845818-163.774836 0-306.362182-107.492073-306.362182-299.845818V299.845818c0-192.353745 142.587345-299.845818 306.362182-299.845818 163.774836 0 304.965818 107.492073 304.965818 299.845818v424.308364z m-183.547345-1.414982V302.675782c0-84.861673-49.412655-137.197382-121.418473-137.197382-72.005818 0-122.824145 52.335709-122.824145 137.197382v420.063418c0 84.861673 50.827636 135.7824 122.824145 135.7824 72.005818 0 121.418473-50.920727 121.418473-135.7824z m895.720727 292.770909h-183.538036V206.494255l-204.716218 178.213236v-198.004364L2041.325382 8.480582H2224.872727v1007.020218z" fill="#409EFF" p-id="2563"></path></svg>